<svg width="93" height="24" viewBox="0 0 93 24" fill="none" xmlns="http://www.w3.org/2000/svg">
<path d="M8.11467 0L0 18.9353H4.11001L9.7228 5.5848L15.3109 18.9353H19.4176L11.3013 0H8.11467Z" fill="currentColor"/>
<path d="M40.6298 6.08688V4.28288H37.1074V18.9354H40.6298V10.8767C40.6298 9.90061 40.9491 9.08749 41.5878 8.43898C42.2264 7.79046 43.0346 7.4662 44.0107 7.4662C44.4995 7.4662 44.9785 7.5699 45.4476 7.77565V3.85986C43.2486 3.85986 41.6437 4.6022 40.6298 6.08688Z" fill="currentColor"/>
<path d="M53.6526 3.43848C51.4733 3.43848 49.6414 4.18082 48.1583 5.66384C46.6934 7.12876 45.9609 8.97061 45.9609 11.1861C45.9609 13.3835 46.7115 15.2336 48.2159 16.7363C49.7368 18.2013 51.6247 18.9337 53.8797 18.9337C55.3447 18.9337 56.6828 18.5963 57.8943 17.9198C59.1057 17.2433 60.0505 16.3133 60.7254 15.1299L57.3165 14.1439C56.4705 15.1776 55.3249 15.6944 53.8797 15.6944C52.8461 15.6944 51.9408 15.3982 51.1606 14.8073C50.3804 14.2147 49.8603 13.4411 49.5969 12.4831H61.234C61.308 11.9762 61.3459 11.5433 61.3459 11.1877C61.3459 8.99037 60.6036 7.14851 59.1205 5.66549C57.654 4.18081 55.8319 3.43848 53.6526 3.43848ZM49.6232 9.74916C49.8866 8.82906 50.3837 8.08672 51.1161 7.5238C51.8486 6.96087 52.6749 6.67777 53.595 6.67777C54.5529 6.67777 55.4072 6.95923 56.1594 7.5238C56.91 8.08672 57.4268 8.82906 57.7083 9.74916H49.6232Z" fill="currentColor"/>
<path d="M71.0442 3.43848C68.8649 3.43848 67.0329 4.18082 65.5499 5.66384C64.085 7.12876 63.3525 8.97061 63.3525 11.1861C63.3525 13.3835 64.1031 15.2336 65.6075 16.7363C67.1284 18.2013 69.0163 18.9337 71.2713 18.9337C72.7363 18.9337 74.0744 18.5963 75.2859 17.9198C76.4973 17.2433 77.4421 16.3133 78.117 15.1299L74.7081 14.1439C73.8621 15.1776 72.7165 15.6944 71.2713 15.6944C70.2377 15.6944 69.3324 15.3982 68.5522 14.8073C67.772 14.2147 67.2519 13.4411 66.9885 12.4831H78.6256C78.6996 11.9762 78.7375 11.5433 78.7375 11.1877C78.7375 8.99037 77.9952 7.14851 76.5121 5.66549C75.0456 4.18081 73.2235 3.43848 71.0442 3.43848ZM67.0148 9.74916C67.2782 8.82906 67.7753 8.08672 68.5077 7.5238C69.2402 6.96087 70.0665 6.67777 70.9866 6.67777C71.9445 6.67777 72.7988 6.95923 73.551 7.5238C74.3016 8.08672 74.8184 8.82906 75.0999 9.74916H67.0148Z" fill="currentColor"/>
<path d="M85.1049 15.7224L92.2633 6.87525V4.28284H80.4287V7.49579H87.4158L80.2871 16.3429V18.9353H92.4032V15.7224H85.1049Z" fill="currentColor"/>
<path d="M31.44 4.75197C30.1578 3.87466 28.5909 3.38087 26.907 3.44342C22.8332 3.59155 19.5923 7.01355 19.6532 11.089C19.7141 15.199 23.0653 18.5124 27.1885 18.5124C28.7653 18.5124 30.2302 18.0268 31.44 17.1989V18.6457C31.44 19.788 30.5134 20.7147 29.371 20.7147H21.6349V24H30.436C32.8046 24 34.7238 22.0808 34.7238 19.7123V10.9754V10.5524V3.43848H31.4384V4.75197H31.44ZM27.1885 15.227C24.8397 15.227 22.9369 13.3242 22.9369 10.9771C22.9369 8.62825 24.8397 6.7255 27.1885 6.7255C29.5356 6.7255 31.4384 8.62825 31.4384 10.9771C31.44 13.3242 29.5373 15.227 27.1885 15.227Z" fill="currentColor"/>
</svg>
